<svg xmlns="http://www.w3.org/2000/svg" viewBox="0 0 512 512">
  <rect width="512" height="512" rx="128" fill="#16a34a"/>
  <path fill="white" transform="translate(96,96) scale(0.625)" d="M384 320c-14.12 0-25.91 10.37-27.76 24.32C344.2 437.5 241.6 512 124.6 512C81.98 512 43.14 496 11.4 472.3c-11.02-8.3-25.2 .5-25.2 14.1C-13.8 501.9 .8245 512 16 512H80c44.18 0 80-35.82 80-80c0-11-2.188-21.43-5.836-31.23c-1.393-3.791-.5391-8.113 2.195-11.05C161.4 384.3 169.4 384 176 384h208c17.67 0 32-14.33 32-32S401.7 320 384 320zM491.7 20.34C480.9 9.531 465.1 3.203 448 3.203c-74.9 0-163.6 22.25-231.2 78.47c-67.62 56.24-118 141.7-118 243.6c0 17.15 6.467 33.36 17.43 45.45c11.02 12.18 26.54 18.57 43.32 18.57c23.01 0 45.92-9.76 60.1-23.95l86.63-86.63c-31.95 1.551-64.84-18.06-72.2-51.98c-2.455-11.23 8.35-20.73 18.25-15.86c63.78 31.42 122.9-2.324 148.8-41.21c17.91-26.85 22.84-59.56 14.61-96.53c-1.92-8.777 5.865-16.14 14.28-13.1c48.81 17.65 91.1 2.379 116.6-18.9C500.4 122.7 512 95.83 512 64C512 47.93 504.6 33.2 491.7 20.34z"/>
</svg>
